PathFileType	4	(X/Y/Z)	C:\MyCloud\GitHub\OpenSimScripting\Matlab\Data\Gait2354_Simbody\Static_Marker.trc	
DataRate	CameraRate	NumFrames	NumMarkers	Units	OrigDataRate	OrigDataStartFrame	OrigNumFrames
100	100	7	33	mm	100	1	100
Frame#	Time	C7			CLAV			STRN			LSHO			RSHO			LASIS			RLSIS			LPSIS			RPSIS			LGTF			LLCF			LMCF			LAF			RGTF			RLCF			RMCF			RAF			RFH			RANK			RMANK			RATT			LFH			LANK			LMANK			LATT			LHEE			L5MT			LTOE			L1MT			RHEE			R5MT			RTOE			R1MT			
		X1	Y1	Z1	X2	Y2	Z2	X3	Y3	Z3	X4	Y4	Z4	X5	Y5	Z5	X6	Y6	Z6	X7	Y7	Z7	X8	Y8	Z8	X9	Y9	Z9	X10	Y10	Z10	X11	Y11	Z11	X12	Y12	Z12	X13	Y13	Z13	X14	Y14	Z14	X15	Y15	Z15	X16	Y16	Z16	X17	Y17	Z17	X18	Y18	Z18	X19	Y19	Z19	X20	Y20	Z20	X21	Y21	Z21	X22	Y22	Z22	X23	Y23	Z23	X24	Y24	Z24	X25	Y25	Z25	X26	Y26	Z26	X27	Y27	Z27	X28	Y28	Z28	X29	Y29	Z29	X30	Y30	Z30	X31	Y31	Z31	X32	Y32	Z32	X33	Y33	Z33	

1	0.01000	370.65454	1587.14014	-42.78538	526.86755	1497.86133	-28.72792	555.37238	1437.45483	-36.15105	428.35620	1561.30615	-147.22533	417.20963	1561.03381	72.60660	504.92871	990.38477	-180.30026	502.74692	997.36365	115.84077	298.90741	1023.61218	-74.65719	304.61926	1024.38647	-8.87217	391.57776	881.41193	-213.92174	459.69949	517.88800	-219.56252	448.39063	516.17859	-91.73636	531.98053	799.06580	-200.56769	437.20114	879.61090	149.54945	477.60638	515.06134	148.83847	442.59171	497.17178	23.22741	539.45172	618.93890	97.69162	451.17957	455.37857	169.79890	386.38522	48.40854	144.04529	403.09647	75.28899	47.86312	496.01678	425.10858	118.76367	432.16495	471.87381	-233.14670	384.14960	54.53935	-201.05582	402.35208	78.71667	-106.48473	479.07330	428.57645	-191.96039	336.17670	67.14164	-153.32016	502.21295	9.55085	-229.81070	589.28723	30.56828	-145.38609	531.06067	22.70863	-106.12825	332.67032	72.06572	101.51385	496.03735	19.05418	174.18779	583.37079	27.75378	100.62091	527.06366	22.62078	54.97190	
2	0.02000	370.71082	1587.14575	-42.74009	527.59735	1498.22522	-28.28613	555.43420	1437.35828	-36.08269	428.38452	1561.27332	-147.17250	417.16730	1560.90979	72.64515	504.94794	990.37537	-180.34189	502.73544	997.32062	115.79862	298.91229	1023.59540	-74.64311	304.63556	1024.36670	-8.85700	391.52328	881.39996	-213.91965	459.66821	517.85040	-219.59840	448.39127	516.12720	-91.75040	531.99011	799.04517	-200.61856	437.19666	879.58966	149.54018	477.60684	515.03180	148.81320	442.48303	497.06613	23.23100	539.45703	618.90619	97.66882	451.19086	455.30066	169.78233	386.37402	48.35917	144.02597	403.05530	75.20806	47.88023	496.03018	425.04309	118.75474	431.70303	471.34872	-233.37308	384.12067	54.48453	-201.01297	402.37662	78.63857	-106.46120	479.08908	428.56018	-191.98170	336.15402	67.11960	-153.27148	502.20483	9.54950	-229.79439	589.27600	30.53210	-145.40205	531.07843	22.61152	-106.15729	332.65900	72.07790	101.54849	496.06708	18.91661	174.10515	583.38599	27.70349	100.60524	527.07153	22.54709	54.95635	
3	0.03000	370.73431	1587.07825	-42.69327	527.62512	1498.13318	-28.26695	555.44562	1437.27173	-36.05483	428.45258	1561.22498	-147.11838	417.20526	1560.86462	72.72158	504.94189	990.29999	-180.36966	502.75815	997.26129	115.78316	298.96091	1023.50427	-74.64542	304.67172	1024.31824	-8.89938	391.57724	881.32623	-213.90387	459.71423	517.74750	-219.59343	448.40765	516.00244	-91.71843	532.02136	798.96375	-200.68164	437.19971	879.52460	149.49899	477.61349	514.95715	148.78755	442.60492	497.03558	23.21783	539.46722	618.83820	97.64249	451.19025	455.24753	169.80608	386.40753	48.33051	144.06261	403.07797	75.08312	47.90717	496.04132	425.03168	118.73988	431.75775	471.24091	-233.37399	384.19901	54.31179	-200.96748	402.43597	78.56086	-106.45209	479.10193	428.49008	-192.02124	336.17001	67.05022	-153.25211	502.20001	9.45063	-229.81747	589.29285	30.43830	-145.40602	531.08002	22.51937	-106.14541	332.66956	72.00542	101.53995	496.06970	18.86698	174.12321	583.41003	27.64614	100.61575	527.07935	22.47303	54.91040	
4	0.04000	370.74597	1587.14673	-42.64857	527.63904	1498.21509	-28.15325	555.45526	1437.34937	-36.00871	428.46429	1561.34827	-147.10149	417.21576	1560.89673	72.75562	504.98605	990.42072	-180.36888	502.76117	997.34064	115.76968	298.95099	1023.64709	-74.69564	304.67291	1024.39905	-8.93134	391.60785	881.42389	-213.96881	459.72974	517.88824	-219.60954	448.41605	516.17279	-91.75878	532.03528	799.05811	-200.70776	437.20709	879.60620	149.49715	477.61578	515.06995	148.80846	442.67776	497.12311	23.22099	539.46063	618.89856	97.63130	451.17438	455.39056	169.78799	386.38321	48.40923	144.02737	403.07587	75.27713	47.87535	496.00873	425.10992	118.76256	432.20096	471.86343	-233.15971	384.16061	54.49661	-201.04083	402.39569	78.69337	-106.48713	479.07962	428.58771	-191.98479	336.17459	67.16031	-153.29681	502.17810	9.59840	-229.80608	589.28601	30.56009	-145.37733	531.06152	22.67434	-106.14773	332.67221	72.08098	101.52625	495.99469	19.15761	174.26579	583.37866	27.74314	100.63645	527.04138	22.64681	54.96784	
5	0.05000	370.63269	1586.98547	-42.60097	527.59454	1498.11902	-28.16153	555.48798	1437.32422	-35.92609	428.51968	1561.36206	-147.04715	417.22049	1560.82751	72.79871	504.99854	990.37964	-180.37637	502.75076	997.36261	115.76567	298.95776	1023.62982	-74.71066	304.68896	1024.35266	-8.95254	391.53140	881.38098	-213.95003	459.66519	517.86237	-219.62213	448.41031	516.18457	-91.76266	532.00018	799.03546	-200.72844	437.22537	879.60419	149.50381	477.63300	515.06818	148.80392	442.63342	497.12939	23.16920	539.50049	618.90228	97.63723	451.24377	455.32434	169.75584	386.37653	48.34700	144.00938	403.05978	75.27281	47.83916	496.04294	425.06052	118.73985	432.16708	471.82431	-233.18024	384.14581	54.49002	-201.02876	402.39642	78.65864	-106.45792	479.09082	428.54535	-191.98552	336.17371	67.10759	-153.28685	502.18658	9.52863	-229.81299	589.25970	30.53987	-145.39063	531.07770	22.66754	-106.14351	332.68143	72.04912	101.52753	496.08127	18.94487	174.11406	583.37817	27.72254	100.62257	527.07544	22.55162	54.93837	
6	0.06000	370.70831	1587.08740	-42.53580	527.58258	1498.09167	-28.14179	555.49127	1437.22754	-35.92934	428.56311	1561.29517	-146.97574	417.26202	1560.78564	72.84528	505.03589	990.35626	-180.42058	502.78253	997.34027	115.74461	298.98834	1023.55804	-74.69349	304.70261	1024.33032	-8.93927	391.54141	881.34839	-213.96918	459.67984	517.79327	-219.65578	448.40317	516.06738	-91.77515	531.98615	799.01495	-200.76405	437.23196	879.56250	149.45465	477.63730	515.03839	148.78194	442.69644	497.04361	23.16632	539.53717	618.85168	97.57012	451.25800	455.28745	169.76443	386.39865	48.33386	144.04100	403.09097	75.14474	47.89854	496.07651	425.04962	118.70631	431.77798	471.36435	-233.38164	384.15811	54.34654	-200.95332	402.43268	78.60830	-106.39389	479.08801	428.51724	-192.06572	336.15390	67.07189	-153.25116	502.24301	9.42448	-229.80418	589.25830	30.50278	-145.38815	531.06024	22.58754	-106.15322	332.66830	72.02578	101.54387	496.04221	18.97327	174.13480	583.37042	27.66872	100.60467	527.07886	22.46744	54.86072	
7	0.07000	370.56583	1586.97314	-42.46782	527.56238	1498.06262	-28.08628	555.46655	1437.19043	-35.91304	428.65634	1561.35901	-146.95810	417.30396	1560.77222	72.92025	505.09525	990.37903	-180.42683	502.80643	997.35645	115.73931	298.99936	1023.61768	-74.71570	304.71060	1024.37842	-8.93842	391.56955	881.40515	-214.00349	459.71045	517.80902	-219.62622	448.43567	516.10388	-91.80370	531.99738	799.01624	-200.75523	437.26083	879.60022	149.46841	477.66833	515.06152	148.76520	442.73532	497.04901	23.12810	539.55951	618.82629	97.55172	451.30280	455.31757	169.76898	386.39804	48.36915	144.04243	403.13205	75.16659	47.87906	496.06317	425.09250	118.69360	431.78958	471.39233	-233.40384	384.18777	54.36355	-200.94482	402.43469	78.65611	-106.44279	479.07254	428.51355	-192.04947	336.15689	67.12794	-153.26608	502.22150	9.45899	-229.79483	589.23022	30.51122	-145.36496	531.05298	22.66880	-106.10566	332.67041	72.05447	101.51992	495.98572	19.19043	174.29758	583.37372	27.71624	100.63774	527.07581	22.64414	54.93766	
